<mxfile host="app.diagrams.net" modified="2023-06-13T16:28:19.829Z" agent="Mozilla/5.0 (Windows NT 10.0; Win64; x64; rv:109.0) Gecko/20100101 Firefox/114.0" etag="I8n2qqCpl-yMGnkjbNjI" version="21.3.8">
  <diagram name="Page-1" id="eYoOHLzLo969Oum7pFAY">
    <mxGraphModel dx="1509" dy="794" grid="1" gridSize="10" guides="1" tooltips="1" connect="1" arrows="1" fold="1" page="1" pageScale="1" pageWidth="827" pageHeight="1169" math="0" shadow="0">
      <root>
        <mxCell id="0" />
        <mxCell id="1" parent="0" />
        <mxCell id="NqawYDxZaYAyfjhPDusi-1" value="" style="rounded=0;whiteSpace=wrap;html=1;" vertex="1" parent="1">
          <mxGeometry x="514" y="289" width="200" height="280" as="geometry" />
        </mxCell>
        <mxCell id="NqawYDxZaYAyfjhPDusi-3" value="" style="rounded=0;whiteSpace=wrap;html=1;" vertex="1" parent="1">
          <mxGeometry x="514" y="609" width="200" height="280" as="geometry" />
        </mxCell>
        <mxCell id="NqawYDxZaYAyfjhPDusi-9" value="" style="group" vertex="1" connectable="0" parent="1">
          <mxGeometry x="684" y="309" width="20" height="20" as="geometry" />
        </mxCell>
        <mxCell id="NqawYDxZaYAyfjhPDusi-4" value="" style="rounded=0;whiteSpace=wrap;html=1;fillColor=#f5f5f5;gradientColor=#b3b3b3;strokeColor=#666666;" vertex="1" parent="NqawYDxZaYAyfjhPDusi-9">
          <mxGeometry width="20" height="20" as="geometry" />
        </mxCell>
        <mxCell id="NqawYDxZaYAyfjhPDusi-8" value="+" style="text;html=1;strokeColor=none;fillColor=none;align=center;verticalAlign=middle;whiteSpace=wrap;rounded=0;fontSize=19;" vertex="1" parent="NqawYDxZaYAyfjhPDusi-9">
          <mxGeometry x="5" y="2.5" width="10" height="15" as="geometry" />
        </mxCell>
        <mxCell id="NqawYDxZaYAyfjhPDusi-13" value="My Task Name" style="rounded=0;whiteSpace=wrap;html=1;fillColor=#88C906;strokeColor=#2D7600;align=left;fontColor=#ffffff;" vertex="1" parent="1">
          <mxGeometry x="524" y="359" width="180" height="30" as="geometry" />
        </mxCell>
        <mxCell id="NqawYDxZaYAyfjhPDusi-14" value="My Task Name" style="rounded=0;whiteSpace=wrap;html=1;fillColor=#88C906;strokeColor=#2D7600;align=left;fontColor=#ffffff;" vertex="1" parent="1">
          <mxGeometry x="524" y="394" width="180" height="30" as="geometry" />
        </mxCell>
        <mxCell id="NqawYDxZaYAyfjhPDusi-15" value="My Task Name" style="rounded=0;whiteSpace=wrap;html=1;fillColor=#1ba1e2;fontColor=#ffffff;strokeColor=#006EAF;align=left;" vertex="1" parent="1">
          <mxGeometry x="524" y="429" width="180" height="30" as="geometry" />
        </mxCell>
        <mxCell id="NqawYDxZaYAyfjhPDusi-16" value="My Task Name" style="rounded=0;whiteSpace=wrap;html=1;fillColor=#1ba1e2;fontColor=#ffffff;strokeColor=#006EAF;align=left;" vertex="1" parent="1">
          <mxGeometry x="524" y="464" width="180" height="30" as="geometry" />
        </mxCell>
        <mxCell id="NqawYDxZaYAyfjhPDusi-98" style="edgeStyle=orthogonalEdgeStyle;rounded=0;orthogonalLoop=1;jettySize=auto;html=1;entryX=0.5;entryY=0;entryDx=0;entryDy=0;" edge="1" parent="1" source="NqawYDxZaYAyfjhPDusi-17" target="NqawYDxZaYAyfjhPDusi-28">
          <mxGeometry relative="1" as="geometry">
            <Array as="points">
              <mxPoint x="634" y="550" />
              <mxPoint x="634" y="550" />
            </Array>
          </mxGeometry>
        </mxCell>
        <mxCell id="NqawYDxZaYAyfjhPDusi-17" value="My Task Name" style="rounded=0;whiteSpace=wrap;html=1;fillColor=#1ba1e2;fontColor=#ffffff;strokeColor=#006EAF;align=left;" vertex="1" parent="1">
          <mxGeometry x="524" y="499" width="180" height="30" as="geometry" />
        </mxCell>
        <mxCell id="NqawYDxZaYAyfjhPDusi-18" value="Done" style="rounded=0;whiteSpace=wrap;html=1;fillColor=#f5f5f5;gradientColor=#b3b3b3;strokeColor=#666666;" vertex="1" parent="1">
          <mxGeometry x="574" y="309" width="50" height="20" as="geometry" />
        </mxCell>
        <mxCell id="NqawYDxZaYAyfjhPDusi-19" value="ToDo" style="rounded=0;whiteSpace=wrap;html=1;fillColor=#f5f5f5;gradientColor=#b3b3b3;strokeColor=#666666;" vertex="1" parent="1">
          <mxGeometry x="624" y="309" width="50" height="20" as="geometry" />
        </mxCell>
        <mxCell id="NqawYDxZaYAyfjhPDusi-20" style="edgeStyle=orthogonalEdgeStyle;rounded=0;orthogonalLoop=1;jettySize=auto;html=1;exitX=0.5;exitY=1;exitDx=0;exitDy=0;" edge="1" parent="1" source="NqawYDxZaYAyfjhPDusi-18" target="NqawYDxZaYAyfjhPDusi-18">
          <mxGeometry relative="1" as="geometry" />
        </mxCell>
        <mxCell id="NqawYDxZaYAyfjhPDusi-27" value="..." style="text;html=1;strokeColor=none;fillColor=none;align=center;verticalAlign=bottom;whiteSpace=wrap;rounded=0;fontSize=26;" vertex="1" parent="1">
          <mxGeometry x="584" y="539" width="60" height="20" as="geometry" />
        </mxCell>
        <mxCell id="NqawYDxZaYAyfjhPDusi-28" value="My Task Name" style="rounded=0;whiteSpace=wrap;html=1;fillColor=#1ba1e2;fontColor=#ffffff;strokeColor=#006EAF;align=left;" vertex="1" parent="1">
          <mxGeometry x="554" y="609" width="160" height="30" as="geometry" />
        </mxCell>
        <mxCell id="NqawYDxZaYAyfjhPDusi-29" value="Task&#39;s Details" style="rounded=0;whiteSpace=wrap;html=1;align=left;verticalAlign=top;" vertex="1" parent="1">
          <mxGeometry x="524" y="649" width="180" height="160" as="geometry" />
        </mxCell>
        <mxCell id="NqawYDxZaYAyfjhPDusi-30" value="Created: dd/mm/yyyy time" style="rounded=0;whiteSpace=wrap;html=1;fontSize=9;align=left;" vertex="1" parent="1">
          <mxGeometry x="524" y="809" width="180" height="25" as="geometry" />
        </mxCell>
        <mxCell id="NqawYDxZaYAyfjhPDusi-44" style="edgeStyle=orthogonalEdgeStyle;rounded=0;orthogonalLoop=1;jettySize=auto;html=1;entryX=0.5;entryY=1;entryDx=0;entryDy=0;" edge="1" parent="1" source="NqawYDxZaYAyfjhPDusi-31" target="NqawYDxZaYAyfjhPDusi-33">
          <mxGeometry relative="1" as="geometry">
            <mxPoint x="844" y="909" as="targetPoint" />
            <Array as="points">
              <mxPoint x="659" y="909" />
              <mxPoint x="854" y="909" />
            </Array>
          </mxGeometry>
        </mxCell>
        <mxCell id="NqawYDxZaYAyfjhPDusi-31" value="Complete" style="rounded=0;whiteSpace=wrap;html=1;fillColor=#d5e8d4;strokeColor=#82b366;gradientColor=#97d077;" vertex="1" parent="1">
          <mxGeometry x="604" y="849" width="100" height="30" as="geometry" />
        </mxCell>
        <mxCell id="NqawYDxZaYAyfjhPDusi-89" style="edgeStyle=orthogonalEdgeStyle;rounded=0;orthogonalLoop=1;jettySize=auto;html=1;entryX=0.5;entryY=1;entryDx=0;entryDy=0;" edge="1" parent="1" source="NqawYDxZaYAyfjhPDusi-32" target="NqawYDxZaYAyfjhPDusi-81">
          <mxGeometry relative="1" as="geometry">
            <Array as="points">
              <mxPoint x="549" y="949" />
              <mxPoint x="1094" y="949" />
            </Array>
          </mxGeometry>
        </mxCell>
        <mxCell id="NqawYDxZaYAyfjhPDusi-32" value="Delete" style="rounded=0;whiteSpace=wrap;html=1;fillColor=#f8cecc;gradientColor=#ea6b66;strokeColor=#b85450;" vertex="1" parent="1">
          <mxGeometry x="524" y="849" width="50" height="30" as="geometry" />
        </mxCell>
        <mxCell id="NqawYDxZaYAyfjhPDusi-33" value="" style="rounded=0;whiteSpace=wrap;html=1;" vertex="1" parent="1">
          <mxGeometry x="754" y="609" width="200" height="280" as="geometry" />
        </mxCell>
        <mxCell id="NqawYDxZaYAyfjhPDusi-35" value="Task&#39;s Details" style="rounded=0;whiteSpace=wrap;html=1;align=left;verticalAlign=top;" vertex="1" parent="1">
          <mxGeometry x="764" y="649" width="180" height="160" as="geometry" />
        </mxCell>
        <mxCell id="NqawYDxZaYAyfjhPDusi-36" value="Created: dd/mm/yyyy time" style="rounded=0;whiteSpace=wrap;html=1;fontSize=9;align=left;" vertex="1" parent="1">
          <mxGeometry x="764" y="809" width="180" height="25" as="geometry" />
        </mxCell>
        <mxCell id="NqawYDxZaYAyfjhPDusi-43" style="edgeStyle=orthogonalEdgeStyle;rounded=0;orthogonalLoop=1;jettySize=auto;html=1;entryX=0.5;entryY=1;entryDx=0;entryDy=0;" edge="1" parent="1" source="NqawYDxZaYAyfjhPDusi-37" target="NqawYDxZaYAyfjhPDusi-3">
          <mxGeometry relative="1" as="geometry">
            <Array as="points">
              <mxPoint x="899" y="929" />
              <mxPoint x="614" y="929" />
            </Array>
          </mxGeometry>
        </mxCell>
        <mxCell id="NqawYDxZaYAyfjhPDusi-37" value="Redo" style="rounded=0;whiteSpace=wrap;html=1;fillColor=#dae8fc;strokeColor=#6c8ebf;gradientColor=#7ea6e0;" vertex="1" parent="1">
          <mxGeometry x="844" y="849" width="100" height="30" as="geometry" />
        </mxCell>
        <mxCell id="NqawYDxZaYAyfjhPDusi-90" style="edgeStyle=orthogonalEdgeStyle;rounded=0;orthogonalLoop=1;jettySize=auto;html=1;entryX=0.5;entryY=1;entryDx=0;entryDy=0;" edge="1" parent="1" source="NqawYDxZaYAyfjhPDusi-38" target="NqawYDxZaYAyfjhPDusi-81">
          <mxGeometry relative="1" as="geometry">
            <Array as="points">
              <mxPoint x="789" y="949" />
              <mxPoint x="1094" y="949" />
            </Array>
          </mxGeometry>
        </mxCell>
        <mxCell id="NqawYDxZaYAyfjhPDusi-38" value="Delete" style="rounded=0;whiteSpace=wrap;html=1;fillColor=#f8cecc;gradientColor=#ea6b66;strokeColor=#b85450;" vertex="1" parent="1">
          <mxGeometry x="764" y="849" width="50" height="30" as="geometry" />
        </mxCell>
        <mxCell id="NqawYDxZaYAyfjhPDusi-39" value="My Task Name" style="rounded=0;whiteSpace=wrap;html=1;fillColor=#88C906;strokeColor=#2D7600;align=left;fontColor=#ffffff;" vertex="1" parent="1">
          <mxGeometry x="794" y="609" width="160" height="30" as="geometry" />
        </mxCell>
        <mxCell id="NqawYDxZaYAyfjhPDusi-47" value="" style="rounded=0;whiteSpace=wrap;html=1;" vertex="1" parent="1">
          <mxGeometry x="754" y="289" width="200" height="280" as="geometry" />
        </mxCell>
        <mxCell id="NqawYDxZaYAyfjhPDusi-48" value="Task&#39;s Details &lt;b&gt;(FORM)&lt;/b&gt;" style="rounded=0;whiteSpace=wrap;html=1;align=left;verticalAlign=top;" vertex="1" parent="1">
          <mxGeometry x="764" y="329" width="180" height="180" as="geometry" />
        </mxCell>
        <mxCell id="NqawYDxZaYAyfjhPDusi-91" style="edgeStyle=orthogonalEdgeStyle;rounded=0;orthogonalLoop=1;jettySize=auto;html=1;entryX=0.5;entryY=0;entryDx=0;entryDy=0;" edge="1" parent="1" source="NqawYDxZaYAyfjhPDusi-50" target="NqawYDxZaYAyfjhPDusi-28">
          <mxGeometry relative="1" as="geometry">
            <Array as="points">
              <mxPoint x="894" y="580" />
              <mxPoint x="634" y="580" />
            </Array>
          </mxGeometry>
        </mxCell>
        <mxCell id="NqawYDxZaYAyfjhPDusi-50" value="Create" style="rounded=0;whiteSpace=wrap;html=1;fillColor=#d5e8d4;strokeColor=#82b366;gradientColor=#97d077;" vertex="1" parent="1">
          <mxGeometry x="844" y="529" width="100" height="30" as="geometry" />
        </mxCell>
        <mxCell id="NqawYDxZaYAyfjhPDusi-88" style="edgeStyle=orthogonalEdgeStyle;rounded=0;orthogonalLoop=1;jettySize=auto;html=1;entryX=0.5;entryY=1;entryDx=0;entryDy=0;" edge="1" parent="1" source="NqawYDxZaYAyfjhPDusi-51" target="NqawYDxZaYAyfjhPDusi-81">
          <mxGeometry relative="1" as="geometry">
            <Array as="points">
              <mxPoint x="789" y="589" />
              <mxPoint x="1094" y="589" />
            </Array>
          </mxGeometry>
        </mxCell>
        <mxCell id="NqawYDxZaYAyfjhPDusi-51" value="Cancel" style="rounded=0;whiteSpace=wrap;html=1;fillColor=#f8cecc;gradientColor=#ea6b66;strokeColor=#b85450;" vertex="1" parent="1">
          <mxGeometry x="764" y="529" width="50" height="30" as="geometry" />
        </mxCell>
        <mxCell id="NqawYDxZaYAyfjhPDusi-53" value="My Task Name &lt;b&gt;(FORM)&lt;/b&gt;" style="rounded=0;whiteSpace=wrap;html=1;align=left;" vertex="1" parent="1">
          <mxGeometry x="764" y="299" width="180" height="30" as="geometry" />
        </mxCell>
        <mxCell id="NqawYDxZaYAyfjhPDusi-59" style="edgeStyle=orthogonalEdgeStyle;rounded=0;orthogonalLoop=1;jettySize=auto;html=1;entryX=0.5;entryY=0;entryDx=0;entryDy=0;" edge="1" parent="1" source="NqawYDxZaYAyfjhPDusi-58" target="NqawYDxZaYAyfjhPDusi-13">
          <mxGeometry relative="1" as="geometry">
            <Array as="points">
              <mxPoint x="444" y="339" />
              <mxPoint x="614" y="339" />
            </Array>
          </mxGeometry>
        </mxCell>
        <mxCell id="NqawYDxZaYAyfjhPDusi-58" value="Scrollable Items&lt;br&gt;(Vertically)" style="text;html=1;strokeColor=#36393d;fillColor=#ffcc99;align=center;verticalAlign=middle;whiteSpace=wrap;rounded=0;" vertex="1" parent="1">
          <mxGeometry x="414" y="359" width="60" height="60" as="geometry" />
        </mxCell>
        <mxCell id="NqawYDxZaYAyfjhPDusi-61" style="edgeStyle=orthogonalEdgeStyle;rounded=0;orthogonalLoop=1;jettySize=auto;html=1;entryX=0.5;entryY=0;entryDx=0;entryDy=0;" edge="1" parent="1" source="NqawYDxZaYAyfjhPDusi-60" target="NqawYDxZaYAyfjhPDusi-8">
          <mxGeometry relative="1" as="geometry">
            <Array as="points">
              <mxPoint x="694" y="289" />
              <mxPoint x="694" y="289" />
            </Array>
          </mxGeometry>
        </mxCell>
        <mxCell id="NqawYDxZaYAyfjhPDusi-60" value="Add new task" style="text;html=1;strokeColor=#36393d;fillColor=#ffcc99;align=center;verticalAlign=middle;whiteSpace=wrap;rounded=0;" vertex="1" parent="1">
          <mxGeometry x="694" y="239" width="80" height="30" as="geometry" />
        </mxCell>
        <mxCell id="NqawYDxZaYAyfjhPDusi-62" style="edgeStyle=orthogonalEdgeStyle;rounded=0;orthogonalLoop=1;jettySize=auto;html=1;" edge="1" parent="1" source="NqawYDxZaYAyfjhPDusi-8">
          <mxGeometry relative="1" as="geometry">
            <mxPoint x="754" y="339" as="targetPoint" />
            <Array as="points">
              <mxPoint x="694" y="339" />
              <mxPoint x="754" y="339" />
            </Array>
          </mxGeometry>
        </mxCell>
        <mxCell id="NqawYDxZaYAyfjhPDusi-67" style="edgeStyle=orthogonalEdgeStyle;rounded=0;orthogonalLoop=1;jettySize=auto;html=1;" edge="1" parent="1" source="NqawYDxZaYAyfjhPDusi-63" target="NqawYDxZaYAyfjhPDusi-18">
          <mxGeometry relative="1" as="geometry">
            <Array as="points">
              <mxPoint x="609" y="289" />
              <mxPoint x="609" y="289" />
            </Array>
          </mxGeometry>
        </mxCell>
        <mxCell id="NqawYDxZaYAyfjhPDusi-63" value="Show completed tasks only" style="text;html=1;align=center;verticalAlign=middle;whiteSpace=wrap;rounded=0;fillColor=#ffcc99;strokeColor=#36393d;" vertex="1" parent="1">
          <mxGeometry x="554" y="219" width="60" height="50" as="geometry" />
        </mxCell>
        <mxCell id="NqawYDxZaYAyfjhPDusi-66" style="edgeStyle=orthogonalEdgeStyle;rounded=0;orthogonalLoop=1;jettySize=auto;html=1;entryX=0.5;entryY=0;entryDx=0;entryDy=0;" edge="1" parent="1" source="NqawYDxZaYAyfjhPDusi-65" target="NqawYDxZaYAyfjhPDusi-19">
          <mxGeometry relative="1" as="geometry">
            <Array as="points">
              <mxPoint x="654" y="259" />
              <mxPoint x="654" y="259" />
            </Array>
          </mxGeometry>
        </mxCell>
        <mxCell id="NqawYDxZaYAyfjhPDusi-65" value="Show unfinished tasks only" style="text;html=1;strokeColor=#36393d;fillColor=#ffcc99;align=center;verticalAlign=middle;whiteSpace=wrap;rounded=0;" vertex="1" parent="1">
          <mxGeometry x="624" y="219" width="60" height="50" as="geometry" />
        </mxCell>
        <mxCell id="NqawYDxZaYAyfjhPDusi-68" value="All" style="rounded=0;whiteSpace=wrap;html=1;fillColor=#f5f5f5;gradientColor=#b3b3b3;strokeColor=#666666;" vertex="1" parent="1">
          <mxGeometry x="524" y="309" width="50" height="20" as="geometry" />
        </mxCell>
        <mxCell id="NqawYDxZaYAyfjhPDusi-74" style="edgeStyle=orthogonalEdgeStyle;rounded=0;orthogonalLoop=1;jettySize=auto;html=1;entryX=0;entryY=0.5;entryDx=0;entryDy=0;" edge="1" parent="1" source="NqawYDxZaYAyfjhPDusi-70" target="NqawYDxZaYAyfjhPDusi-68">
          <mxGeometry relative="1" as="geometry">
            <Array as="points">
              <mxPoint x="494" y="319" />
            </Array>
          </mxGeometry>
        </mxCell>
        <mxCell id="NqawYDxZaYAyfjhPDusi-70" value="Show all tasks" style="text;html=1;strokeColor=#36393d;fillColor=#ffcc99;align=center;verticalAlign=middle;whiteSpace=wrap;rounded=0;" vertex="1" parent="1">
          <mxGeometry x="484" y="219" width="60" height="50" as="geometry" />
        </mxCell>
        <mxCell id="NqawYDxZaYAyfjhPDusi-81" value="" style="rounded=0;whiteSpace=wrap;html=1;" vertex="1" parent="1">
          <mxGeometry x="994" y="289" width="200" height="280" as="geometry" />
        </mxCell>
        <mxCell id="NqawYDxZaYAyfjhPDusi-83" value="Confirm" style="rounded=0;whiteSpace=wrap;html=1;fillColor=#f8cecc;strokeColor=#b85450;gradientColor=#ea6b66;" vertex="1" parent="1">
          <mxGeometry x="1014" y="446.5" width="165" height="30" as="geometry" />
        </mxCell>
        <mxCell id="NqawYDxZaYAyfjhPDusi-84" value="Cancel" style="rounded=0;whiteSpace=wrap;html=1;fillColor=#f5f5f5;gradientColor=#b3b3b3;strokeColor=#666666;" vertex="1" parent="1">
          <mxGeometry x="1014" y="489" width="165" height="30" as="geometry" />
        </mxCell>
        <mxCell id="NqawYDxZaYAyfjhPDusi-87" value="Confirm Action Popup" style="rounded=1;whiteSpace=wrap;html=1;fillColor=#fff2cc;strokeColor=#d6b656;" vertex="1" parent="1">
          <mxGeometry x="1009" y="341.5" width="170" height="90" as="geometry" />
        </mxCell>
        <mxCell id="NqawYDxZaYAyfjhPDusi-96" value="Home" style="rounded=0;whiteSpace=wrap;html=1;fillColor=#f5f5f5;gradientColor=#b3b3b3;strokeColor=#666666;" vertex="1" parent="1">
          <mxGeometry x="514" y="609" width="40" height="30" as="geometry" />
        </mxCell>
        <mxCell id="NqawYDxZaYAyfjhPDusi-97" value="Home" style="rounded=0;whiteSpace=wrap;html=1;fillColor=#f5f5f5;gradientColor=#b3b3b3;strokeColor=#666666;" vertex="1" parent="1">
          <mxGeometry x="754" y="609" width="40" height="30" as="geometry" />
        </mxCell>
      </root>
    </mxGraphModel>
  </diagram>
</mxfile>
